<svg width="211" height="213" viewBox="0 0 211 213" fill="none" xmlns="http://www.w3.org/2000/svg">
<g id="Group 19">
<path id="Ellipse 2" d="M172.423 105.011C172.423 141.483 142.658 171.108 105.868 171.108C69.0776 171.108 39.313 141.483 39.313 105.011C39.313 68.5398 69.0776 38.9141 105.868 38.9141C142.658 38.9141 172.423 68.5398 172.423 105.011Z" stroke="#FFCC00" stroke-width="11"/>
<line id="Line 10" x1="106.956" y1="39.2593" x2="106.956" y2="173.687" stroke="#FFCC00" stroke-width="11"/>
<path id="Vector 75" d="M105.133 37.7979C70.5761 55.3318 53.9592 134.965 105.133 172.956" stroke="#FFCC00" stroke-width="11"/>
<path id="Vector 77" d="M56.606 57.5247C87.4867 77.98 125.72 76.5195 156.601 57.5243" stroke="#FFCC00" stroke-width="11"/>
<path id="Vector 78" d="M57.3408 151.769C87.7674 131.573 125.438 133.015 155.865 151.769" stroke="#FFCC00" stroke-width="11"/>
<path id="Vector 76" d="M105.868 37.7979C140.324 55.2371 156.893 134.44 105.868 172.225" stroke="#FFCC00" stroke-width="11"/>
<line id="Line 11" x1="38.2246" y1="103.896" x2="173.512" y2="103.896" stroke="#FFCC00" stroke-width="11"/>
<path id="Vector 79" d="M13.559 156.623C15.0291 159.281 18.3756 160.244 21.0338 158.774C23.6919 157.304 24.655 153.958 23.1849 151.3L13.559 156.623ZM23.1849 151.3C-19.1817 74.6941 60.7407 -19.8771 149.834 22.3133L154.542 12.3716C55.4121 -34.5715 -33.7739 71.038 13.559 156.623L23.1849 151.3Z" fill="#FFCC00"/>
<path id="Vector 80" d="M197.441 54.1312C195.971 51.473 192.624 50.5099 189.966 51.98C187.308 53.4501 186.345 56.7967 187.815 59.4548L197.441 54.1312ZM187.815 59.4548C230.182 136.06 150.259 230.632 61.1655 188.441L56.4577 198.383C155.588 245.326 244.774 139.716 197.441 54.1312L187.815 59.4548Z" fill="#FFCC00"/>
<path id="Polygon 1" d="M158.547 5.70615C159.318 4.37919 161.235 4.37919 162.006 5.70615L176.36 30.4097C177.134 31.743 176.172 33.4145 174.63 33.4145H145.923C144.381 33.4145 143.419 31.743 144.194 30.4097L158.547 5.70615Z" fill="#FFCC00"/>
<path id="Polygon 2" d="M69.6603 180.859C71.1543 181.257 71.6571 183.121 70.5635 184.208L50.2641 204.379C49.175 205.461 47.3178 204.959 46.9175 203.475L39.4875 175.921C39.0871 174.437 40.4431 173.08 41.9309 173.476L69.6603 180.859Z" fill="#FFCC00"/>
</g>
</svg>
