<svg width="326" height="100" viewBox="0 0 326 100" fill="none" xmlns="http://www.w3.org/2000/svg">
<path d="M14.0279 97.8142V13.388L25.8347 26.5027H0V2.18579H41.616V97.8142H14.0279Z" fill="#FFCC00"/>
<path d="M92.2296 100C84.9818 100 78.5524 98.0419 72.9413 94.1257C67.4081 90.2095 63.0438 84.5173 59.8486 77.0492C56.7313 69.5811 55.1726 60.5647 55.1726 50C55.1726 39.4353 56.7313 30.4189 59.8486 22.9508C63.0438 15.4827 67.4081 9.79052 72.9413 5.87431C78.5524 1.95811 84.9818 0 92.2296 0C99.4773 0 105.868 1.95811 111.401 5.87431C117.012 9.79052 121.376 15.4827 124.494 22.9508C127.689 30.4189 129.287 39.4353 129.287 50C129.287 60.5647 127.689 69.5811 124.494 77.0492C121.376 84.5173 117.012 90.2095 111.401 94.1257C105.868 98.0419 99.4773 100 92.2296 100ZM92.2296 74.1803C94.022 74.1803 95.6197 73.4517 97.0224 71.9945C98.4252 70.5373 99.5163 68.0328 100.296 64.4809C101.153 60.929 101.581 56.102 101.581 50C101.581 43.8069 101.153 38.98 100.296 35.5191C99.5163 31.9672 98.4252 29.4627 97.0224 28.0055C95.6197 26.5483 94.022 25.8197 92.2296 25.8197C90.4371 25.8197 88.8395 26.5483 87.4367 28.0055C86.0339 29.4627 84.9039 31.9672 84.0467 35.5191C83.2673 38.98 82.8777 43.8069 82.8777 50C82.8777 56.102 83.2673 60.929 84.0467 64.4809C84.9039 68.0328 86.0339 70.5373 87.4367 71.9945C88.8395 73.4517 90.4371 74.1803 92.2296 74.1803Z" fill="#FFCC00"/>
<path d="M176.675 100C169.428 100 162.998 98.0419 157.387 94.1257C151.854 90.2095 147.49 84.5173 144.294 77.0492C141.177 69.5811 139.618 60.5647 139.618 50C139.618 39.4353 141.177 30.4189 144.294 22.9508C147.49 15.4827 151.854 9.79052 157.387 5.87431C162.998 1.95811 169.428 0 176.675 0C183.923 0 190.314 1.95811 195.847 5.87431C201.458 9.79052 205.822 15.4827 208.939 22.9508C212.135 30.4189 213.732 39.4353 213.732 50C213.732 60.5647 212.135 69.5811 208.939 77.0492C205.822 84.5173 201.458 90.2095 195.847 94.1257C190.314 98.0419 183.923 100 176.675 100ZM176.675 74.1803C178.468 74.1803 180.065 73.4517 181.468 71.9945C182.871 70.5373 183.962 68.0328 184.741 64.4809C185.599 60.929 186.027 56.102 186.027 50C186.027 43.8069 185.599 38.98 184.741 35.5191C183.962 31.9672 182.871 29.4627 181.468 28.0055C180.065 26.5483 178.468 25.8197 176.675 25.8197C174.883 25.8197 173.285 26.5483 171.882 28.0055C170.48 29.4627 169.35 31.9672 168.492 35.5191C167.713 38.98 167.323 43.8069 167.323 50C167.323 56.102 167.713 60.929 168.492 64.4809C169.35 68.0328 170.48 70.5373 171.882 71.9945C173.285 73.4517 174.883 74.1803 176.675 74.1803Z" fill="#FFCC00"/>
<path d="M236.455 97.8142L292.333 2.18579H312.089L256.211 97.8142H236.455ZM244.288 54.0984C240.157 54.0984 236.455 53.0965 233.182 51.0929C229.909 48.9982 227.298 45.9472 225.35 41.9399C223.48 37.9326 222.544 33.1056 222.544 27.459C222.544 21.8124 223.48 17.031 225.35 13.1148C227.298 9.10747 229.909 6.05646 233.182 3.96175C236.455 1.86703 240.157 0.81967 244.288 0.81967C248.418 0.81967 252.12 1.86703 255.393 3.96175C258.666 6.05646 261.238 9.10747 263.108 13.1148C265.057 17.031 266.031 21.8124 266.031 27.459C266.031 33.1056 265.057 37.9326 263.108 41.9399C261.238 45.9472 258.666 48.9982 255.393 51.0929C252.12 53.0965 248.418 54.0984 244.288 54.0984ZM244.288 39.3443C245.613 39.3443 246.782 38.5246 247.795 36.8853C248.886 35.1548 249.431 32.0127 249.431 27.459C249.431 22.9053 248.886 19.8087 247.795 18.1694C246.782 16.439 245.613 15.5738 244.288 15.5738C243.041 15.5738 241.872 16.439 240.781 18.1694C239.69 19.8087 239.144 22.9053 239.144 27.459C239.144 32.0127 239.69 35.1548 240.781 36.8853C241.872 38.5246 243.041 39.3443 244.288 39.3443ZM304.257 99.1803C300.126 99.1803 296.425 98.1785 293.151 96.1749C289.878 94.0802 287.267 91.0292 285.319 87.0219C283.449 83.0146 282.514 78.1876 282.514 72.541C282.514 66.8944 283.449 62.1129 285.319 58.1967C287.267 54.1894 289.878 51.1384 293.151 49.0437C296.425 46.949 300.126 45.9016 304.257 45.9016C308.387 45.9016 312.089 46.949 315.362 49.0437C318.635 51.1384 321.207 54.1894 323.078 58.1967C325.026 62.1129 326 66.8944 326 72.541C326 78.1876 325.026 83.0146 323.078 87.0219C321.207 91.0292 318.635 94.0802 315.362 96.1749C312.089 98.1785 308.387 99.1803 304.257 99.1803ZM304.257 84.4262C305.582 84.4262 306.751 83.6066 307.764 81.9672C308.855 80.2368 309.4 77.0947 309.4 72.541C309.4 67.9873 308.855 64.8907 307.764 63.2514C306.751 61.521 305.582 60.6557 304.257 60.6557C303.01 60.6557 301.841 61.521 300.75 63.2514C299.659 64.8907 299.113 67.9873 299.113 72.541C299.113 77.0947 299.659 80.2368 300.75 81.9672C301.841 83.6066 303.01 84.4262 304.257 84.4262Z" fill="#FFCC00"/>
</svg>
